# xmcd CD database file
#
# Track frame offsets:
#	150
#	14255
#	28005
#	42275
#	56230
#	69292
#	83512
#	97257
#	111437
#	123769
#	135425
#	147888
#	160460
#	172376
#	185784
#	198974
#	213364
#	227647
#	241872
#	256364
#	270742
#	285194
#	300257
#	312757
#	325519
#
# Disc length: 4525 seconds
#
# Revision: 0
# Processed by: cddbd v1.5.2PL0 Copyright (c) Steve Scherf et al.
# Submitted via: CDex 1.51
#
DISCID=5c11ab19
DTITLE=Various Artist -  Louis Armstrong 1924 Vol. 2
DYEAR=1924
DGENRE=Jazz
TTITLE0=Fletcher Henderson: The Meanest Kind Of Blues
TTITLE1=Fletcher Henderson: Naughty Man
TTITLE2=Fletcher Henderson: How Come You Do Me Like You Do
TTITLE3=Fletcher Henderson: How Come You Do Me Like You Do
TTITLE4=Fletcher Henderson: How Come You Do Me Like You Do
TTITLE5=Fletcher Henderson: Araby
TTITLE6=Fletcher Henderson: Everybody Loves My Baby
TTITLE7=Fletcher Henderson: Everybody Loves My Baby
TTITLE8=Fletcher Henderson: Naughty Man
TTITLE9=Margaret Johnson: Papa, Mama's All Alone
TTITLE10=Margaret Johnson: Changeable Daddy Of Mine
TTITLE11=Red Onion Jazz Babies: Terrible Blues
TTITLE12=Red Onion Jazz Babies: Santa Claus Blues
TTITLE13=Sippie Wallace: Baby, I Can't Use You No More
TTITLE14=Sippie Wallace: Trouble Everywhere I Roam
TTITLE15=Fletcher Henderson And His Orchestra: Prince Of Wails
TTITLE16=Fletcher Henderson And His Orchestra: Prince Of Wails
TTITLE17=Fletcher Henderson And His Orchestra: Prince Of Wails
TTITLE18=Fletcher Henderson And His Orchestra: Mandy
TTITLE19=Fletcher Henderson And His Orchestra: Mandy
TTITLE20=Clarence Williams Blue Five: Mandy, make Up Your Mind
TTITLE21=Clarence Williams Blue Five: I'm A Little Blackbird
TTITLE22=Red Onion Jazz Babies - Josephine Beatty: Nobody Knows The Way I Feel 'Dis Mornin'
TTITLE23=Red Onion Jazz Babies - Josephine Beatty: Early Every Morn'
TTITLE24=Red Onion Jazz Babies - Josephine Beatty: Cake Walkin' Babies From Home
EXTD=YEAR: 1924
EXTT0=
EXTT1=
EXTT2=
EXTT3=
EXTT4=
EXTT5=
EXTT6=
EXTT7=
EXTT8=
EXTT9=
EXTT10=
EXTT11=
EXTT12=
EXTT13=
EXTT14=
EXTT15=
EXTT16=
EXTT17=
EXTT18=
EXTT19=
EXTT20=
EXTT21=
EXTT22=
EXTT23=
EXTT24=
PLAYORDER=
